{"title":"Fully Loaded 2011 WEBRip XviD AC3-DQ1","uid":7947989,"size":1067028129,"categoryP":"video","categoryS":"movies","magnet":"?xt=urn:btih:063d6ce1e9f13bb54f4a116aee67a5f831f1a5b4&amp;dn=Fully+Loaded+2011+WEBRip+XviD+AC3-DQ1&amp;tr=udp%3A%2F%2Ftracker.openbittorrent.com%3A80&amp;tr=udp%3A%2F%2Fopen.demonii.com%3A1337&amp;tr=udp%3A%2F%2Ftracker.coppersurfer.tk%3A6969&amp;tr=udp%3A%2F%2Fexodus.desync.com%3A6969","seeders":1,"leechers":0,"uploader":"juggs99","files":4,"time":1356187662,"description":"Complete name                            : D:StuffFully.Loaded.2011.WEBRip.XviD.AC3-DQ1Fully.Loaded.2011.WEBRip.XviD.AC3-DQ1.avi\n\nFormat                                   : AVI\n\nFormat/Info                              : Audio Video Interleave\n\nFile size                                : 1 000 MiB\n\nDuration                                 : 1h 15mn\n\nOverall bit rate                         : 1 850 Kbps\n\nWriting application                      : VirtualDubMod 1.5.10.3 | www.virtualdub-fr.org || (build 2550/release)\n\nWriting library                          : VirtualDubMod build 2550/release\n\n\n\nVideo\n\nID                                       : 0\n\nFormat                                   : MPEG-4 Visual\n\nFormat profile                           : Simple@L1\n\nFormat settings, BVOP                    : No\n\nFormat settings, QPel                    : No\n\nFormat settings, GMC                     : No warppoints\n\nFormat settings, Matrix                  : Default (H.263)\n\nCodec ID                                 : XVID\n\nCodec ID/Hint                            : XviD\n\nDuration                                 : 1h 15mn\n\nBit rate                                 : 1 712 Kbps\n\nWidth                                    : 720 pixels\n\nHeight                                   : 388 pixels\n\nDisplay aspect ratio                     : 1.85:1\n\nFrame rate                               : 23.976 fps\n\nColor space                              : YUV\n\nChroma subsampling                       : 4:2:0\n\nBit depth                                : 8 bits\n\nScan type                                : Progressive\n\nCompression mode                         : Lossy\n\nBits/(Pixel*Frame)                       : 0.256\n\nStream size                              : 925 MiB (93%)\n\nWriting library                          : Lavc54.1.100\n\n\n\nAudio\n\nID                                       : 1\n\nFormat                                   : MPEG Audio\n\nFormat version                           : Version 1\n\nFormat profile                           : Layer 3\n\nCodec ID                                 : 55\n\nCodec ID/Hint                            : MP3\n\nDuration                                 : 1h 15mn\n\nBit rate mode                            : Constant\n\nBit rate                                 : 128 Kbps\n\nChannel(s)                               : 2 channels\n\nSampling rate                            : 44.1 KHz\n\nCompression mode                         : Lossy\n\nDelay relative to video                  : 15ms\n\nStream size                              : 69.1 MiB (7%)\n\nAlignment                                : Split accross interleaves\n\nInterleave, duration                     : 42 ms (1.00 video frame)\n\nInterleave, preload duration             : 500 ms\n\n\n\n\n\n\n\n\n\n\n\n\n\n\n\nIMDB LINK....:: http://www.imdb.com/title/tt1390536/\n\nAudio.............:: English\n\nSubtitles........:: None\n\n\n &lt;a href=&quot;\nhttp://img442.imageshack.us/img442/4944/fullyloaded2011webripxv.jpg&quot; rel=&quot;nofollow&quot; target=&quot;_NEW&quot;&gt;\nhttp://img442.imageshack.us/img442/4944/fullyloaded2011webripxv.jpg&lt;/a&gt;","torrent":{"xt":"urn:btih:063d6ce1e9f13bb54f4a116aee67a5f831f1a5b4","amp;dn":"Fully+Loaded+2011+WEBRip+XviD+AC3-DQ1","amp;tr":["udp%3A%2F%2Ftracker.openbittorrent.com%3A80","udp%3A%2F%2Fopen.demonii.com%3A1337","udp%3A%2F%2Ftracker.coppersurfer.tk%3A6969","udp%3A%2F%2Fexodus.desync.com%3A6969"],"infoHash":"063d6ce1e9f13bb54f4a116aee67a5f831f1a5b4","infoHashBuffer":{"type":"Buffer","data":[6,61,108,225,233,241,59,181,79,74,17,106,238,103,165,248,49,241,165,180]},"announce":[],"urlList":[]}}